<svg xmlns="http://www.w3.org/2000/svg" viewBox="0 0 1200 630" role="img" aria-label="Pasieka Las — naturalne miody z serca lasu">
  <defs>
    <linearGradient id="bg" x1="0" y1="0" x2="1" y2="1">
      <stop offset="0%" stop-color="#fdf8ef"/>
      <stop offset="60%" stop-color="#f0c94b" stop-opacity="0.5"/>
      <stop offset="100%" stop-color="#a67c00" stop-opacity="0.6"/>
    </linearGradient>
    <radialGradient id="comb" cx="0.5" cy="0.5" r="0.6">
      <stop offset="0%" stop-color="#f0c94b"/>
      <stop offset="100%" stop-color="#d4a017"/>
    </radialGradient>
  </defs>
  <rect width="1200" height="630" fill="url(#bg)"/>
  <g transform="translate(600 315)">
    <polygon points="0,-180 156,-90 156,90 0,180 -156,90 -156,-90" fill="url(#comb)" stroke="#5c3d2e" stroke-width="6"/>
    <g stroke="#5c3d2e" stroke-width="3" fill="none">
      <polygon points="0,-90 78,-45 78,45 0,90 -78,45 -78,-45"/>
      <polygon points="0,-120 104,-60 104,60 0,120 -104,60 -104,-60" opacity="0.6"/>
    </g>
    <g fill="#5c3d2e">
      <circle cx="0" cy="0" r="20"/>
      <path d="M-40,-20 L40,-20 L20,20 L-20,20 Z" opacity="0.5"/>
    </g>
  </g>
  <text x="60" y="80" font-family="Georgia, serif" font-size="48" font-weight="700" fill="#5c3d2e">Pasieka Las</text>
  <text x="60" y="130" font-family="Georgia, serif" font-size="28" fill="#6b5744">Naturalne miody z serca lasu</text>
</svg>
